# xmcd
#
# Track frame offsets: 
#        150
#        17930
#        31559
#        49823
#        69301
#        85995
#        103745
#        121249
#        136418
#        154240
#        172407
#        187617
#        205095
#
# Disc length: 2926 seconds
#
# Revision: 0
# Processed by: cddbd v1.5.2PL0 Copyright (c) Steve Scherf et al.
# Submitted via: ExactAudioCopy v0.99pb5
#
DISCID=aa0b6c0d
DTITLE=Craig Morgan - That's Why Collector's Edition
DYEAR=2010
DGENRE=Country
TTITLE0=Love Remembers
TTITLE1=BonFire
TTITLE2=This Ain't Nothin
TTITLE3=That's Why
TTITLE4=God Must Really Love Me
TTITLE5=Lookin' Back With You
TTITLE6=Sticks
TTITLE7=It Took A Woman
TTITLE8=Planet Her
TTITLE9=Ordinary Angels
TTITLE10=You
TTITLE11=Summer Sundown
TTITLE12=Evel Knievel
EXTD=
EXTT0=
EXTT1=
EXTT2=
EXTT3=
EXTT4=
EXTT5=
EXTT6=
EXTT7=
EXTT8=
EXTT9=
EXTT10=
EXTT11=
EXTT12=
PLAYORDER=
